<svg xmlns="http://www.w3.org/2000/svg" viewBox="0 0 512 512">
  <defs>
    <linearGradient id="grad" x1="0%" y1="0%" x2="100%" y2="100%">
      <stop offset="0%" style="stop-color:#2563eb;stop-opacity:1" />
      <stop offset="100%" style="stop-color:#1d4ed8;stop-opacity:1" />
    </linearGradient>
    <filter id="shadow" x="-20%" y="-20%" width="140%" height="140%">
      <feDropShadow dx="0" dy="12" stdDeviation="16" flood-color="#1e3a8a" flood-opacity="0.3"/>
    </filter>
  </defs>
  <rect width="512" height="512" rx="128" fill="url(#grad)" />
  <g filter="url(#shadow)" fill="#ffffff">
    <path d="M160 144 h192 a16 16 0 0 1 16 16 v48 a16 16 0 0 1 -16 16 h-192 a16 16 0 0 1 -16 -16 v-48 a16 16 0 0 1 16 -16 z" opacity="0.95"/>
    <rect x="144" y="256" width="64" height="64" rx="16" />
    <rect x="224" y="256" width="64" height="64" rx="16" />
    <rect x="304" y="256" width="64" height="64" rx="16" />
    <rect x="144" y="336" width="64" height="64" rx="16" />
    <rect x="224" y="336" width="64" height="64" rx="16" />
    <rect x="304" y="336" width="64" height="64" rx="16" fill="#93c5fd"/>
  </g>
</svg>
